<svg width="500" height="750" viewBox="0 0 500 750" fill="none" xmlns="http://www.w3.org/2000/svg">
<path d="M429.688 203.125H70.3125C64.0966 203.125 58.1354 205.595 53.7401 209.99C49.3447 214.385 46.8753 220.347 46.875 226.562V523.438C46.8753 529.653 49.3447 535.615 53.7401 540.01C58.1354 544.405 64.0966 546.875 70.3125 546.875H429.688C435.903 546.875 441.865 544.405 446.26 540.01C450.655 535.615 453.125 529.653 453.125 523.438V226.562C453.125 220.347 450.655 214.385 446.26 209.99C441.865 205.595 435.903 203.125 429.688 203.125ZM406.25 414.062L331.34 332.342C329.922 330.775 328.2 329.514 326.278 328.636C324.356 327.758 322.275 327.281 320.162 327.236C318.049 327.19 315.95 327.575 313.991 328.369C312.033 329.163 310.257 330.348 308.773 331.852L225.22 415.405L309.814 500H265.625L190.736 425.109C187.805 422.18 183.831 420.535 179.688 420.535C175.544 420.535 171.57 422.18 168.639 425.109L93.75 500V250H406.25V414.062ZM126.563 320.312C126.563 312.896 128.762 305.645 132.882 299.479C137.003 293.312 142.86 288.505 149.712 285.667C156.564 282.829 164.104 282.086 171.378 283.533C178.653 284.98 185.335 288.552 190.579 293.796C195.823 299.04 199.395 305.722 200.842 312.997C202.289 320.271 201.546 327.811 198.708 334.663C195.87 341.515 191.063 347.372 184.896 351.493C178.73 355.613 171.479 357.812 164.062 357.812C154.117 357.812 144.579 353.861 137.546 346.829C130.514 339.796 126.563 330.258 126.563 320.312Z" fill="#B5B5B5"/>
</svg>
